<?xml version="1.0" encoding="UTF-8"?>
<svg version="1.1" xmlns="http://www.w3.org/2000/svg" width="1024" height="1024">
<path d="M0 0 C337.92 0 675.84 0 1024 0 C1024 337.92 1024 675.84 1024 1024 C686.08 1024 348.16 1024 0 1024 C0 686.08 0 348.16 0 0 Z " fill="#FEF4E2" transform="translate(0,0)"/>
<path d="M0 0 C0.82209404 -0.00453111 1.64418809 -0.00906223 2.49119407 -0.01373065 C5.24392724 -0.02638346 7.99646278 -0.02475369 10.7492218 -0.02310181 C12.7238592 -0.02908661 14.69849425 -0.03589205 16.67312622 -0.04345703 C22.03697938 -0.06113179 27.40076873 -0.06581311 32.7646482 -0.0670886 C36.11746684 -0.06851024 39.47026926 -0.07278013 42.82308388 -0.07808304 C54.52503616 -0.09659011 66.22694287 -0.10475304 77.9289093 -0.10317993 C88.82782783 -0.10197923 99.72654809 -0.12306592 110.62541646 -0.15466726 C119.98866286 -0.18084615 129.35184458 -0.19154651 138.71512729 -0.19026911 C144.304578 -0.18975984 149.89385264 -0.19542374 155.48326683 -0.21662521 C160.74382695 -0.23603394 166.00404356 -0.23611389 171.26461601 -0.22159195 C173.19065606 -0.21950584 175.11671775 -0.22419286 177.04272079 -0.23631287 C189.84249513 -0.3116135 200.79883836 0.29996463 210.7973175 9.26742554 C212.52420054 11.11675261 214.15685144 13.0231755 215.7816925 14.96273804 C218.16698938 17.69011237 220.71576396 20.2286433 223.2973175 22.76742554 C227.02976072 26.44833477 230.56892548 30.22016738 233.96138 34.21664429 C237.08461386 37.70536295 240.48391883 40.91950371 243.85591125 44.16586304 C245.7973175 46.26742554 245.7973175 46.26742554 245.7973175 48.26742554 C246.6016925 48.21521851 246.6016925 48.21521851 247.4223175 48.16195679 C273.77342215 47.2518035 302.62553983 59.88437471 322.0473175 77.28305054 C323.68269369 78.90432865 325.24863373 80.56387339 326.7973175 82.26742554 C328.00388 83.44305054 328.00388 83.44305054 329.2348175 84.64242554 C330.0804425 85.50867554 330.9260675 86.37492554 331.7973175 87.26742554 C332.36966125 87.84363647 332.942005 88.41984741 333.5316925 89.01351929 C357.19760072 114.05205018 363.5706915 147.6962495 363.0473175 181.00961304 C362.14714362 210.92239113 349.36100757 238.82942892 328.7973175 260.26742554 C328.03934875 261.08855835 327.28138 261.90969116 326.5004425 262.75570679 C317.27575752 272.44765523 306.00911009 280.70427558 293.7973175 286.26742554 C293.1373175 286.26742554 292.4773175 286.26742554 291.7973175 286.26742554 C291.80619995 286.85322891 291.8150824 287.43903229 291.82423401 288.04258728 C291.91296372 294.15853077 291.97315782 300.27429038 292.01704407 306.39071655 C292.03711671 308.67106559 292.06438094 310.95136342 292.09907532 313.23153687 C292.14778359 316.51576396 292.17033036 319.79930845 292.1879425 323.08383179 C292.21891022 324.6045504 292.21891022 324.6045504 292.25050354 326.1559906 C292.25247898 332.43600275 291.48398547 336.13561119 287.7973175 341.26742554 C284.99018563 344.00157198 282.94421795 344.7368467 279.0473175 344.82992554 C278.24809875 344.8724646 277.44888 344.91500366 276.6254425 344.95883179 C268.54754601 342.98398693 262.19869352 334.90980819 256.59028625 329.18539429 C255.31946953 327.9032177 255.31946953 327.9032177 254.02297974 326.59513855 C251.33866838 323.88655117 248.66097456 321.17156836 245.9848175 318.45492554 C242.44234326 314.85938525 238.8933838 311.27043341 235.34028625 307.68539429 C234.52778915 306.85630051 233.71529205 306.02720673 232.87817383 305.17298889 C232.12341263 304.41162125 231.36865143 303.6502536 230.59101868 302.86581421 C229.92897934 302.19330124 229.26694 301.52078827 228.58483887 300.82789612 C224.99353281 297.69275739 220.98835002 298.12218078 216.49043274 298.12557983 C215.74837585 298.12210541 215.00631897 298.11863098 214.24177551 298.11505127 C212.62779934 298.10769672 211.01381308 298.10234973 209.39982414 298.0987606 C206.82798101 298.09156616 204.25632551 298.07587016 201.68453979 298.05741882 C194.37068011 298.0051419 187.05691593 297.95715607 179.74287415 297.9414978 C175.26525708 297.93128543 170.78810305 297.90161904 166.31067085 297.86017799 C164.62023015 297.8480334 162.92972346 297.84271572 161.23924065 297.84497643 C145.75696766 297.86056176 130.98665046 295.63275577 116.6098175 289.57992554 C115.78014465 289.23743774 114.9504718 288.89494995 114.09565735 288.54208374 C103.31631664 283.95541721 93.74290086 277.97348519 84.4848175 270.82992554 C83.89096252 270.37408081 83.29710754 269.91823608 82.68525696 269.44857788 C79.88607569 267.22101889 77.78778884 265.25446655 75.64888 262.34555054 C72.55324954 258.14687933 70.16747537 255.66101301 64.84809875 254.77767944 C49.55247892 253.22203249 49.55247892 253.22203249 35.41596985 257.81381226 C32.59330234 260.34867837 30.15124578 263.18658355 27.67085266 266.05258179 C21.90296238 272.62034456 15.56254952 278.68813114 9.38447571 284.86557007 C6.96777375 287.2844849 4.55921884 289.71132761 2.15083313 292.13851929 C0.61030627 293.68197603 -0.93069232 295.22496212 -2.47221375 296.76742554 C-3.18891739 297.4913147 -3.90562103 298.21520386 -4.64404297 298.96102905 C-5.31541794 299.62932739 -5.98679291 300.29762573 -6.67851257 300.98617554 C-7.26425552 301.57334351 -7.84999847 302.16051147 -8.45349121 302.76547241 C-11.69114322 305.54550087 -13.50657571 306.30343106 -17.8276825 306.07992554 C-21.2026825 305.26742554 -21.2026825 305.26742554 -23.2026825 302.26742554 C-23.47905254 299.74899483 -23.47905254 299.74899483 -23.51657104 296.6661377 C-23.54487157 294.90088934 -23.54487157 294.90088934 -23.57374382 293.0999794 C-23.58430872 291.79672588 -23.59487362 290.49347237 -23.60575867 289.15072632 C-23.62378096 287.75078251 -23.64256207 286.3508483 -23.66203499 284.95092392 C-23.71296674 281.07164557 -23.75046886 277.1923369 -23.78511834 273.3128829 C-23.8083141 270.82023718 -23.83503013 268.32765367 -23.86292076 265.8350563 C-24.33402402 223.62261911 -24.45696259 181.40650445 -24.49191475 139.19173813 C-24.50286326 126.16324889 -24.52789328 113.13495376 -24.57142669 100.10653102 C-24.60154981 90.76309245 -24.61638684 81.41970585 -24.61970681 72.07621968 C-24.62204022 66.55823484 -24.63079466 61.04044925 -24.65616798 55.52251816 C-24.6794188 50.39481626 -24.68369432 45.26744662 -24.6734066 40.13970566 C-24.67291224 38.27003875 -24.67920327 36.40035517 -24.69296265 34.53073883 C-24.84015908 13.34943886 -24.84015908 13.34943886 -18.45256519 6.34954643 C-12.86362643 1.10925517 -7.55485641 -0.03060339 0 0 Z " fill="#FED555" transform="translate(417.2026824951172,241.73257446289063)"/>
<path d="M0 0 C2.01782096 -0.00248939 4.03563228 -0.00683969 6.05344963 -0.01135308 C12.37356847 -0.0252729 18.69355178 -0.02394214 25.01367188 -0.01245117 C31.4690231 -0.00097158 37.92395873 -0.01507168 44.37925529 -0.04184765 C49.98504941 -0.06420347 55.59071497 -0.07059822 61.19655037 -0.06477123 C64.51699638 -0.06144861 67.83696706 -0.0652824 71.15740967 -0.08102226 C109.55403489 -0.23747674 142.37641985 9.88726437 170.37109375 37.0859375 C181.38551515 48.17758534 190.04824493 61.69755833 195.76269531 76.20166016 C196.03892731 76.8977388 196.3151593 77.59381744 196.59976196 78.31098938 C197.27676143 80.01776379 197.9511439 81.72557585 198.625 83.43359375 C197.18270901 83.43579359 197.18270901 83.43579359 195.71128082 83.43803787 C172.30844295 83.47464303 148.90574807 83.53410601 125.50302887 83.61749649 C114.1856106 83.6572952 102.86826194 83.68968351 91.55078125 83.70458984 C81.68574222 83.717602 71.82085632 83.74455565 61.95590353 83.78820682 C56.73311514 83.81083129 51.51051569 83.82650383 46.28767395 83.8254776 C41.36938493 83.82473158 36.45151374 83.84265928 31.53333282 83.87476158 C29.73064835 83.88326367 27.92791704 83.8850084 26.12522125 83.87939644 C23.65774322 83.87273953 21.19158807 83.89071622 18.72424316 83.91461182 C17.66194984 83.90297119 17.66194984 83.90297119 16.57819605 83.8910954 C10.1208296 84.00129298 4.90814304 86.21215728 0.3125 90.68359375 C-3.66125433 97.15934155 -4.81962336 102.85027588 -4.77372742 110.29211426 C-4.78037424 111.14832855 -4.78702107 112.00454284 -4.79386932 112.88670301 C-4.81242188 115.7364408 -4.80989926 118.58575585 -4.80737305 121.43554688 C-4.81639493 123.48596791 -4.82672319 125.53638355 -4.83825684 127.58679199 C-4.86580276 133.13987447 -4.87510813 138.69285454 -4.88111091 144.24599648 C-4.89050078 150.05429761 -4.91670472 155.86252244 -4.94111633 161.67077637 C-4.98476804 172.66361104 -5.01332322 183.6564309 -5.03643972 194.64932585 C-5.06349846 207.16685043 -5.1074096 219.6842982 -5.15272844 232.20176792 C-5.24555573 257.94566821 -5.3172453 283.68959258 -5.375 309.43359375 C-6.6856543 309.4586499 -7.99630859 309.48370605 -9.34667969 309.50952148 C-11.08011098 309.56523054 -12.81350813 309.62200882 -14.546875 309.6796875 C-15.40909668 309.69334351 -16.27131836 309.70699951 -17.15966797 309.72106934 C-22.56236005 309.92697251 -25.64126588 310.50507093 -29.625 314.49609375 C-30.91884805 316.10768445 -32.17198682 317.7531097 -33.375 319.43359375 C-34.50739598 320.75770463 -35.65284283 322.07079166 -36.8125 323.37109375 C-37.36808594 324.01949219 -37.92367187 324.66789062 -38.49609375 325.3359375 C-40.70127296 327.79785275 -43.02386677 330.11083015 -45.375 332.43359375 C-48.32683025 335.34985978 -51.17888859 338.2796521 -53.875 341.43359375 C-66.87941922 356.56937859 -66.87941922 356.56937859 -73.48828125 357.83984375 C-77.83619512 358.02518999 -80.73559256 357.68972663 -84.25 354.99609375 C-91.25807371 347.74500476 -90.78858064 338.38776035 -90.66796875 328.8671875 C-90.66372391 327.59255142 -90.65947906 326.31791534 -90.65510559 325.00465393 C-90.64123423 321.64583882 -90.61436858 318.28765676 -90.58099365 314.92901611 C-90.55008729 311.48984187 -90.53655672 308.05060175 -90.52148438 304.61132812 C-90.48852491 297.88524449 -90.43840767 291.15945559 -90.375 284.43359375 C-90.9733667 284.14766357 -91.5717334 283.8617334 -92.18823242 283.56713867 C-116.73305172 270.84395055 -133.26584268 242.51751641 -141.6328125 217.20678711 C-146.19153116 202.83111622 -147.54390068 188.83658784 -147.61328125 173.859375 C-147.61735678 173.10961081 -147.6214323 172.35984661 -147.62563133 171.58736229 C-147.64641814 167.60796775 -147.66074382 163.6286068 -147.67016602 159.64916992 C-147.67896594 156.40353272 -147.69970648 153.15833204 -147.73168945 149.9128418 C-148.07304414 114.47054173 -148.07304414 114.47054173 -143.375 97.43359375 C-143.07215088 96.32363037 -142.76930176 95.21366699 -142.45727539 94.07006836 C-141.64954156 91.41239999 -140.74893248 88.83713174 -139.75 86.24609375 C-139.41009033 85.34375 -139.07018066 84.44140625 -138.7199707 83.51171875 C-126.07660143 51.09545352 -101.34480145 24.46846369 -69.375 10.43359375 C-65.97079232 9.03703013 -62.53784903 7.76656461 -59.0625 6.55859375 C-58.29470215 6.2843457 -57.5269043 6.01009766 -56.73583984 5.72753906 C-38.3979904 -0.25017659 -19.06049448 -0.02857295 0 0 Z " fill="#15A2C9" transform="translate(398.375,158.56640625)"/>
<path d="M0 0 C7.82712652 -0.1253941 13.2387999 2.68196914 19 8 C20.66772099 9.86236217 22.29179882 11.75806979 23.9140625 13.66015625 C26.33984771 16.38121494 28.90418153 18.94335871 31.5 21.5 C35.23214654 25.18122791 38.77158638 28.95271639 42.1640625 32.94921875 C45.28729635 36.43793741 48.68660133 39.65207818 52.05859375 42.8984375 C54 45 54 45 54 47 C54.804375 46.94779297 54.804375 46.94779297 55.625 46.89453125 C81.97610464 45.98437796 110.82822233 58.61694917 130.25 76.015625 C131.88537619 77.63690312 133.45131623 79.29644785 135 81 C136.2065625 82.175625 136.2065625 82.175625 137.4375 83.375 C138.283125 84.24125 139.12875 85.1075 140 86 C140.57234375 86.57621094 141.1446875 87.15242188 141.734375 87.74609375 C165.40028321 112.78462464 171.773374 146.42882396 171.25 179.7421875 C170.34982612 209.6549656 157.56369007 237.56200338 137 259 C136.24203125 259.82113281 135.4840625 260.64226562 134.703125 261.48828125 C125.47844001 271.18022969 114.21179258 279.43685005 102 285 C101.34 285 100.68 285 100 285 C100.00888245 285.58580338 100.01776489 286.17160675 100.0269165 286.77516174 C100.11564622 292.89110524 100.17584032 299.00686484 100.21972656 305.12329102 C100.2397992 307.40364005 100.26706343 309.68393789 100.30175781 311.96411133 C100.35046609 315.24833842 100.37301286 318.53188292 100.390625 321.81640625 C100.42159271 323.33712486 100.42159271 323.33712486 100.45318604 324.88856506 C100.45516147 331.16857722 99.68666797 334.86818565 96 340 C93.19286813 342.73414645 91.14690044 343.46942117 87.25 343.5625 C86.05117188 343.62630859 86.05117188 343.62630859 84.828125 343.69140625 C76.7502285 341.71656139 70.40137602 333.64238266 64.79296875 327.91796875 C63.9457576 327.06318436 63.09854645 326.20839996 62.22566223 325.32771301 C59.54135087 322.61912563 56.86365706 319.90414282 54.1875 317.1875 C50.64502575 313.59195971 47.09606629 310.00300788 43.54296875 306.41796875 C42.73047165 305.58887497 41.91797455 304.75978119 41.08085632 303.90556335 C40.32609512 303.14419571 39.57133392 302.38282806 38.79370117 301.59838867 C38.13166183 300.9258757 37.4696225 300.25336273 36.78752136 299.56047058 C33.19621531 296.42533185 29.19103252 296.85475524 24.69311523 296.8581543 C23.95105835 296.85467987 23.20900146 296.85120544 22.44445801 296.84762573 C20.83048184 296.84027118 19.21649557 296.83492419 17.60250664 296.83133507 C15.0306635 296.82414062 12.459008 296.80844463 9.88722229 296.78999329 C2.57336261 296.73771636 -4.74040158 296.68973053 -12.05444336 296.67407227 C-16.53206042 296.66385989 -21.00921446 296.63419351 -25.48664665 296.59275246 C-27.17708736 296.58060786 -28.86759404 296.57529019 -30.55807686 296.57755089 C-46.04034985 296.59313622 -60.81066705 294.36533023 -75.1875 288.3125 C-76.01717285 287.97001221 -76.8468457 287.62752441 -77.70166016 287.2746582 C-94.39548856 280.17134585 -111.32128848 269.05770831 -123 255 C-123 254.34 -123 253.68 -123 253 C-122.23100435 252.99668985 -121.46200871 252.99337971 -120.66971016 252.98996925 C-101.93116106 252.9086376 -83.19269322 252.81651203 -64.45425606 252.71247292 C-55.39237265 252.66241819 -46.33049797 252.61597461 -37.26855469 252.578125 C-29.36727498 252.54511394 -21.46606442 252.50523277 -13.56486118 252.45720994 C-9.38387235 252.43203531 -5.20292885 252.41022768 -1.02188492 252.39665604 C2.91959271 252.38375324 6.86091416 252.3616117 10.80230522 252.33261681 C12.2429389 252.32360486 13.68359768 252.31786586 15.12425804 252.31578636 C29.74519007 252.29091919 41.53033454 250.67753023 53 241 C53.66 241 54.32 241 55 241 C55.2475 240.443125 55.495 239.88625 55.75 239.3125 C57 237 57 237 58.875 234.75 C66.7854642 224.51292868 67.2981133 213.37530364 67.31884766 200.85131836 C67.32816174 199.44113602 67.33833258 198.03095911 67.34928894 196.62078857 C67.37643636 192.81773528 67.39169271 189.0147187 67.40471697 185.21159434 C67.42041477 181.22773608 67.44718357 177.24395206 67.4727478 173.26014709 C67.51941841 165.72749866 67.55621899 158.19483607 67.58942068 150.66211754 C67.62772518 142.08161491 67.67711336 133.50118708 67.72740483 124.92074764 C67.83055026 107.28055327 67.91986687 89.64031317 68 72 C67.43338654 72.00666183 66.86677307 72.01332367 66.2829895 72.02018738 C60.34496784 72.08695139 54.40705413 72.13196969 48.46875 72.16479492 C46.25744286 72.17981037 44.04616515 72.20022891 41.83496094 72.22631836 C38.64250391 72.26302154 35.45044325 72.2797993 32.2578125 72.29296875 C31.28135773 72.30845261 30.30490295 72.32393646 29.29885864 72.33988953 C21.27218876 72.34182395 12.67066045 71.40158558 6.5625 65.6875 C5.94503906 65.13449219 5.32757812 64.58148438 4.69140625 64.01171875 C-0.77367734 57.51167706 -0.3982031 51.278709 -0.29296875 43.1640625 C-0.28872391 41.92957367 -0.28447906 40.69508484 -0.28010559 39.42318726 C-0.26334731 35.49023394 -0.22569883 31.55779779 -0.1875 27.625 C-0.1707574 24.95443458 -0.15876183 22.28387401 -0.14648438 19.61328125 C-0.11345298 13.07534514 -0.06328112 6.53770953 0 0 Z " fill="#FC9B23" transform="translate(609,243)"/>
<path d="M0 0 C8.52157908 6.74095062 13.9231839 16.40814909 16 27 C16.54425632 33.19820334 16.3744713 39.44485688 16.328125 45.66015625 C16.32506285 47.45950665 16.3231902 49.25885943 16.32244873 51.05821228 C16.31787 54.80770092 16.30352917 58.55697187 16.28125 62.30639648 C16.25278515 67.12187032 16.24201749 71.93717464 16.2375679 76.75272465 C16.23342392 80.45775557 16.22361804 84.16275203 16.21169281 87.86776543 C16.20598469 89.64485842 16.20122778 91.42195472 16.19742584 93.19905281 C16.19059019 95.66930186 16.1769757 98.13941356 16.16113281 100.60961914 C16.16001495 101.34772324 16.15889709 102.08582733 16.15774536 102.84629822 C16.11470164 107.88529836 16.11470164 107.88529836 15 109 C10.71508535 109.28150942 6.41805904 109.23182832 2.125 109.25 C0.91457031 109.270625 -0.29585938 109.29125 -1.54296875 109.3125 C-2.70183594 109.31765625 -3.86070312 109.3228125 -5.0546875 109.328125 C-6.12187012 109.3374707 -7.18905273 109.34681641 -8.28857422 109.35644531 C-11 109 -11 109 -12.83959961 107.62084961 C-14.35816433 105.49971533 -14.50011774 103.89837513 -14.6875 101.3125 C-14.75324219 100.50425781 -14.81898438 99.69601562 -14.88671875 98.86328125 C-14.94279297 97.94095703 -14.94279297 97.94095703 -15 97 C-15.680625 97.721875 -16.36125 98.44375 -17.0625 99.1875 C-28.15347318 110.0333688 -40.76025626 111.60833362 -55.72485352 111.47241211 C-66.67191905 111.13958359 -74.82282713 108.40438511 -83 101 C-83.55558594 100.51015625 -84.11117188 100.0203125 -84.68359375 99.515625 C-90.59591706 93.55906984 -93.04928483 84.68558755 -93.5 76.4375 C-92.89128892 66.05136716 -88.40476928 57.1745692 -81 50 C-63.23209514 36.06265506 -35.31374707 38.65254285 -14 38 C-14.30316944 36.07096221 -14.61143997 34.14272564 -14.921875 32.21484375 C-15.09299805 31.14097412 -15.26412109 30.06710449 -15.44042969 28.96069336 C-16.69414318 22.32727998 -19.4871049 18.81661968 -25 15 C-33.13819659 12.19237126 -43.55807107 10.93726106 -51.625 14.625 C-57.29195512 18.11613938 -60.133937 23.10362971 -63 29 C-66.95827235 29.05785647 -70.9164367 29.09354717 -74.875 29.125 C-76.00292969 29.14175781 -77.13085938 29.15851562 -78.29296875 29.17578125 C-79.90751953 29.18544922 -79.90751953 29.18544922 -81.5546875 29.1953125 C-83.04718018 29.21102295 -83.04718018 29.21102295 -84.56982422 29.22705078 C-87 29 -87 29 -89 27 C-90.38560651 19.03276258 -85.78610079 12.0890534 -81.4296875 5.6953125 C-62.28052278 -18.07925432 -23.10728529 -16.03917449 0 0 Z " fill="#034D5A" transform="translate(381,711)"/>
<path d="M0 0 C1.16789063 0.5259375 1.16789063 0.5259375 2.359375 1.0625 C16.60380561 8.13559658 24.89131818 20.35881407 30 35 C31.88661319 41.24285546 32.30729958 46.87149765 32.25 53.375 C32.26160156 54.72658203 32.26160156 54.72658203 32.2734375 56.10546875 C32.27085937 56.96527344 32.26828125 57.82507813 32.265625 58.7109375 C32.26336914 59.48743652 32.26111328 60.26393555 32.25878906 61.06396484 C32 63 32 63 30 65 C27.37974279 65.18791915 24.86608685 65.25185785 22.24560547 65.22705078 C21.44552063 65.22734283 20.64543579 65.22763489 19.82110596 65.22793579 C17.16969047 65.22653956 14.51855406 65.2109647 11.8671875 65.1953125 C10.03158726 65.19158341 8.19598502 65.18873595 6.36038208 65.18673706 C1.52372768 65.1790924 -3.31280703 65.1594368 -8.14941406 65.1373291 C-13.08266582 65.11688857 -18.01593687 65.10773919 -22.94921875 65.09765625 C-32.63286515 65.07619167 -42.31642263 65.04204572 -52 65 C-51.39541915 67.3953169 -50.78226309 69.78788306 -50.1640625 72.1796875 C-49.99527588 72.85217529 -49.82648926 73.52466309 -49.65258789 74.2175293 C-47.87315662 81.04771164 -45.57799996 86.58747234 -39.6015625 90.6171875 C-35.19984235 92.95684055 -31.01281043 94.69309324 -26 95 C-25.17757812 95.061875 -24.35515625 95.12375 -23.5078125 95.1875 C-15.39026299 95.54728059 -9.83017756 93.63856677 -3.1875 89.0625 C-0.87761202 87.10608891 -0.87761202 87.10608891 0.37890625 84.3984375 C4.67338844 80.46876229 9.53123719 81.39566848 15.125 81.5625 C16.23488281 81.56830078 17.34476563 81.57410156 18.48828125 81.58007812 C26.70518321 81.70518321 26.70518321 81.70518321 29 84 C29.14318556 91.0160925 25.48092252 94.92162115 21 100 C20.44570313 100.68320312 19.89140625 101.36640625 19.3203125 102.0703125 C9.72136039 112.94912489 -5.83990261 118.29513695 -19.94140625 119.2734375 C-35.36590996 119.82772119 -49.49068836 115.93545472 -61.3125 105.6875 C-74.15466273 93.35984699 -80.86524843 78.97607455 -81.40454102 61.12158203 C-81.62083271 42.27696757 -77.64624365 26.29418571 -64.34765625 12.28515625 C-47.83927293 -3.783736 -21.44612577 -10.51551973 0 0 Z " fill="#034D5A" transform="translate(736,704)"/>
<path d="M0 0 C1.05960937 -0.00386719 2.11921875 -0.00773438 3.2109375 -0.01171875 C4.86996094 0.00568359 4.86996094 0.00568359 6.5625 0.0234375 C8.22152344 0.00603516 8.22152344 0.00603516 9.9140625 -0.01171875 C10.97367187 -0.00785156 12.03328125 -0.00398437 13.125 0 C14.58099609 0.00507568 14.58099609 0.00507568 16.06640625 0.01025391 C19.0314538 0.47136752 19.72209654 1.09062591 21.5625 3.3984375 C21.87246752 6.39407057 21.99993835 9.18598711 21.99487305 12.18432617 C22.0050647 13.08209274 22.01525635 13.97985931 22.02575684 14.90483093 C22.05597679 17.87541878 22.06516653 20.84568465 22.07421875 23.81640625 C22.09105876 25.87479227 22.10920807 27.93316796 22.12861633 29.99153137 C22.17619604 35.41170017 22.20595386 40.83182711 22.23205566 46.25213623 C22.26182098 51.78210723 22.30836511 57.31193388 22.35351562 62.84179688 C22.43963943 73.69393503 22.50694433 84.54610283 22.5625 95.3984375 C23.68882402 94.27756166 24.81437228 93.15590626 25.93959045 92.03392029 C26.56646287 91.40938178 27.19333529 90.78484327 27.83920383 90.14137936 C29.65932976 88.30050388 31.38082779 86.40486833 33.05859375 84.43359375 C36.48114352 80.4696883 40.0289467 76.64236233 43.625 72.8359375 C47.59889972 68.6236038 51.56553303 64.40730576 55.47265625 60.1328125 C56.09712646 59.4529126 56.72159668 58.7730127 57.36499023 58.07250977 C58.55029017 56.78050902 59.73105561 55.48432851 60.90649414 54.18334961 C61.4452417 53.5981958 61.98398926 53.01304199 62.5390625 52.41015625 C63.00393066 51.89928467 63.46879883 51.38841309 63.94775391 50.86206055 C68.29007732 46.92613239 71.56231279 46.02839097 77.39453125 46.10546875 C79.33295898 46.1199707 79.33295898 46.1199707 81.31054688 46.13476562 C82.6653707 46.15982765 84.02018841 46.18522244 85.375 46.2109375 C86.74933445 46.22599737 88.12368468 46.23968349 89.49804688 46.25195312 C92.85326632 46.28727122 96.20768166 46.33659899 99.5625 46.3984375 C100.30210876 48.12335205 100.30210876 48.12335205 100.5625 50.3984375 C99.05030823 52.51190186 99.05030823 52.51190186 96.72875977 54.79980469 C95.8677919 55.6603949 95.00682404 56.52098511 94.11976624 57.40765381 C93.17403244 58.32758118 92.22829865 59.24750854 91.25390625 60.1953125 C90.28732184 61.15257232 89.3218349 62.11094148 88.35740662 63.07037354 C85.81514173 65.59354075 83.25822131 68.10133642 80.69799805 70.60626221 C78.08850674 73.16462077 75.49309969 75.73717919 72.89648438 78.30859375 C67.79886486 83.35257683 62.68568565 88.38041009 57.5625 93.3984375 C58.87714429 96.80945206 60.17750148 99.47553605 62.46875 102.33203125 C63.04222168 103.05559814 63.61569336 103.77916504 64.20654297 104.5246582 C64.81900879 105.28738037 65.43147461 106.05010254 66.0625 106.8359375 C70.73288391 112.74064563 75.26344164 118.67985419 79.58300781 124.84619141 C84.15404748 131.32152249 89.00762271 137.58296987 93.85498047 143.8527832 C97.00529121 147.94834309 100.12136335 152.06937165 103.109375 156.28515625 C103.60791992 156.98213623 104.10646484 157.67911621 104.62011719 158.3972168 C105.5625 160.3984375 105.5625 160.3984375 105.21582031 162.65551758 C105.00022461 163.23068115 104.78462891 163.80584473 104.5625 164.3984375 C100.2760497 164.5974335 95.99209749 164.74191334 91.70239258 164.83789062 C90.24618673 164.87792378 88.79029849 164.93237383 87.33520508 165.00195312 C75.31313344 165.56207705 75.31313344 165.56207705 71.16699219 162.80615234 C69.3569231 160.76726321 67.95558078 158.73815651 66.5625 156.3984375 C65.76608471 155.32195549 64.96204694 154.25104619 64.1484375 153.1875 C63.41882813 152.14335938 62.68921875 151.09921875 61.9375 150.0234375 C61.08651843 148.81469497 60.23492284 147.60638456 59.3828125 146.3984375 C58.93325195 145.7590625 58.48369141 145.1196875 58.02050781 144.4609375 C55.31162556 140.62894868 52.56059896 136.82734774 49.8125 133.0234375 C49.28188965 132.28689941 48.7512793 131.55036133 48.20458984 130.79150391 C44.71132466 125.95241005 41.1596043 121.16082357 37.5625 116.3984375 C35.90950948 117.81036691 34.26158217 119.22858113 32.63720703 120.67333984 C30.5625 122.3984375 30.5625 122.3984375 28.45263672 123.67431641 C25.88305638 125.38476288 24.3112485 126.83338848 22.5625 129.3984375 C21.46987476 135.00928723 21.57359011 140.51483731 21.6875 146.2109375 C21.70096227 148.49735965 21.70327513 150.78329893 21.69650269 153.06974792 C21.69572226 154.48656822 21.7085327 155.90347535 21.73635864 157.32002258 C21.75216072 159.01374555 21.66564781 160.70778445 21.5625 162.3984375 C18.87762835 165.08330915 17.49773019 164.65613199 13.75 164.6640625 C12.59242188 164.66664063 11.43484375 164.66921875 10.2421875 164.671875 C9.02789062 164.66414062 7.81359375 164.65640625 6.5625 164.6484375 C5.34820312 164.65617188 4.13390625 164.66390625 2.8828125 164.671875 C1.14644531 164.66800781 1.14644531 164.66800781 -0.625 164.6640625 C-2.22408203 164.66067871 -2.22408203 164.66067871 -3.85546875 164.65722656 C-6.4375 164.3984375 -6.4375 164.3984375 -8.4375 162.3984375 C-8.69197559 159.67755985 -8.69197559 159.67755985 -8.69819641 156.14186096 C-8.70202196 155.49298398 -8.70584751 154.84410701 -8.70978898 154.17556709 C-8.72014528 151.99139373 -8.71612196 149.80748197 -8.7121582 147.62329102 C-8.71650324 146.06137853 -8.72168569 144.49946819 -8.72764587 142.93756104 C-8.74106976 138.68758968 -8.74161078 134.43770706 -8.73908257 130.18771863 C-8.73801512 126.64381564 -8.74289043 123.09993077 -8.747688 119.55603164 C-8.75879496 111.19741559 -8.75921395 102.83884448 -8.75317383 94.48022461 C-8.74713224 85.84828522 -8.75944699 77.21650876 -8.7807439 68.58459717 C-8.79833932 61.18158824 -8.80436451 53.77863127 -8.80110615 46.37560219 C-8.79928981 41.95057273 -8.80196425 37.52565947 -8.81582069 33.10064888 C-8.82836099 28.94001412 -8.82649122 24.77963397 -8.81340981 20.6190033 C-8.81103612 19.08994398 -8.81380691 17.56086696 -8.82203293 16.03182793 C-8.83243595 13.94825239 -8.82445301 11.8655414 -8.8117218 9.78199768 C-8.81188954 8.61484002 -8.81205729 7.44768236 -8.81223011 6.24515629 C-8.4375 3.3984375 -8.4375 3.3984375 -7.070117 1.52372646 C-4.70103056 -0.10917753 -2.8561334 0.00995664 0 0 Z " fill="#024D5A" transform="translate(485.4375,655.6015625)"/>
<path d="M0 0 C0.99265869 -0.00845947 1.98531738 -0.01691895 3.00805664 -0.02563477 C4.09594482 -0.01956207 5.18383301 -0.01348938 6.3046875 -0.00723267 C8.02449829 -0.0151181 8.02449829 -0.0151181 9.77905273 -0.02316284 C13.57940178 -0.0363964 17.37933399 -0.02761254 21.1796875 -0.01748657 C23.8138029 -0.01950633 26.44791776 -0.02241695 29.08203125 -0.02618408 C34.60681701 -0.03164314 40.1314825 -0.02444618 45.65625 -0.01016235 C52.04506571 0.00616457 58.43359421 0.00087616 64.82240295 -0.01564157 C70.96643894 -0.03089112 77.1103475 -0.02928318 83.25439453 -0.02049637 C85.86995483 -0.01849084 88.48552243 -0.02096594 91.10107422 -0.02793503 C94.75247801 -0.03552828 98.40332531 -0.02397438 102.0546875 -0.00723267 C103.14257568 -0.01330536 104.23046387 -0.01937805 105.35131836 -0.02563477 C106.34397705 -0.01717529 107.33663574 -0.00871582 108.359375 0 C109.65464111 0.00169662 109.65464111 0.00169662 110.97607422 0.00342751 C113.66626254 0.46431105 114.55393404 1.22341713 116.1796875 3.38095093 C116.55200195 5.70932007 116.55200195 5.70932007 116.54296875 8.41610718 C116.54200195 9.87693726 116.54200195 9.87693726 116.54101562 11.36727905 C116.52490234 12.38241577 116.50878906 13.39755249 116.4921875 14.44345093 C116.49541016 15.46245483 116.49863281 16.48145874 116.50195312 17.53134155 C116.44667891 25.11395952 116.44667891 25.11395952 114.1796875 27.38095093 C112.26876831 27.62145996 112.26876831 27.62145996 109.91357422 27.60800171 C109.03281219 27.60785065 108.15205017 27.60769958 107.24459839 27.60754395 C106.29247467 27.59722137 105.34035095 27.5868988 104.359375 27.57626343 C102.89868088 27.57201859 102.89868088 27.57201859 101.40847778 27.56768799 C98.29042401 27.55647006 95.17265482 27.53136263 92.0546875 27.50595093 C89.94401456 27.49592321 87.83333712 27.486797 85.72265625 27.47860718 C80.54156915 27.45652551 75.36064865 27.42303222 70.1796875 27.38095093 C70.18153109 28.03363134 70.18337467 28.68631176 70.18527412 29.35877037 C70.22940022 45.22369129 70.26251823 61.08859094 70.28331184 76.95355797 C70.29363418 84.62566707 70.30771272 92.29773527 70.33056641 99.96981812 C70.35047107 106.65507522 70.36339697 113.34030272 70.36786449 120.02558863 C70.37047685 123.56696591 70.37663672 127.10825844 70.39114761 130.64960861 C70.40719716 134.59832118 70.40766907 138.54695005 70.40673828 142.49569702 C70.41392883 143.67605026 70.42111938 144.8564035 70.42852783 146.07252502 C70.4257785 147.14387192 70.42302917 148.21521881 70.42019653 149.31903076 C70.42204012 150.25372885 70.42388371 151.18842693 70.42578316 152.1514492 C70.1796875 154.38095093 70.1796875 154.38095093 68.1796875 156.38095093 C65.50585937 156.63973999 65.50585937 156.63973999 62.1484375 156.64657593 C60.94574219 156.64915405 59.74304688 156.65173218 58.50390625 156.65438843 C57.24191406 156.64665405 55.97992188 156.63891968 54.6796875 156.63095093 C53.41769531 156.6386853 52.15570313 156.64641968 50.85546875 156.65438843 C49.05142578 156.65052124 49.05142578 156.65052124 47.2109375 156.64657593 C46.10298828 156.64432007 44.99503906 156.64206421 43.85351562 156.63973999 C41.1796875 156.38095093 41.1796875 156.38095093 39.1796875 154.38095093 C38.93359184 152.1514492 38.93359184 152.1514492 38.93917847 149.31903076 C38.93642914 148.24768387 38.93367981 147.17633698 38.93084717 146.07252502 C38.93803772 144.89217178 38.94522827 143.71181854 38.95263672 142.49569702 C38.95234467 141.25670151 38.95205261 140.01770599 38.95175171 138.74116516 C38.95290846 135.33840498 38.96295679 131.93588581 38.97689962 128.53316832 C38.98938012 124.97906926 38.99057536 121.42496719 38.99295044 117.87084961 C38.99917312 111.13830973 39.01559454 104.4058346 39.03564942 97.67332327 C39.05798397 90.00958659 39.06899569 82.34584686 39.07904029 74.68208575 C39.09996012 58.91500328 39.13515133 43.14798544 39.1796875 27.38095093 C38.6203653 27.38761276 38.06104309 27.3942746 37.48477173 27.40113831 C31.67773166 27.4673678 25.87079837 27.51269963 20.06347656 27.54574585 C17.89448694 27.56085793 15.725528 27.58134828 13.55664062 27.60726929 C10.44393354 27.64354627 7.33162945 27.66065282 4.21875 27.67391968 C3.2447525 27.68940353 2.270755 27.70488739 1.26724243 27.72084045 C0.36645966 27.72106705 -0.53432312 27.72129364 -1.46240234 27.7215271 C-2.65487076 27.73151985 -2.65487076 27.73151985 -3.87142944 27.74171448 C-4.51456085 27.62266251 -5.15769226 27.50361053 -5.8203125 27.38095093 C-8.73524575 23.00855105 -8.15002127 19.02293032 -8.1328125 13.88095093 C-8.14892578 12.91802124 -8.16503906 11.95509155 -8.18164062 10.96298218 C-8.18228516 10.03872437 -8.18292969 9.11446655 -8.18359375 8.16220093 C-8.18657471 7.31722046 -8.18955566 6.47223999 -8.19262695 5.60165405 C-7.39068945 0.81842552 -4.44363999 0.00582054 0 0 Z " fill="#024D5A" transform="translate(177.8203125,663.6190490722656)"/>
<path d="M0 0 C1.10923828 0.00064453 2.21847656 0.00128906 3.36132812 0.00195312 C5.09866211 0.02612305 5.09866211 0.02612305 6.87109375 0.05078125 C8.03318359 0.04755859 9.19527344 0.04433594 10.39257812 0.04101562 C19.04167429 0.09636179 19.04167429 0.09636179 21.30859375 2.36328125 C21.53564453 4.97705078 21.53564453 4.97705078 21.50390625 8.24609375 C21.49746094 9.41269531 21.49101563 10.57929687 21.484375 11.78125 C21.46761719 13.00457031 21.45085938 14.22789062 21.43359375 15.48828125 C21.42457031 16.71933594 21.41554688 17.95039062 21.40625 19.21875 C21.38261923 22.2671194 21.34967429 25.31510507 21.30859375 28.36328125 C22.14632324 28.35280762 22.98405273 28.34233398 23.84716797 28.33154297 C26.95197539 28.29748106 30.05668767 28.27239214 33.16162109 28.25341797 C35.16770735 28.23840018 37.17370699 28.21299144 39.1796875 28.1875 C40.43652344 28.18105469 41.69335938 28.17460938 42.98828125 28.16796875 C44.15085449 28.15749512 45.31342773 28.14702148 46.51123047 28.13623047 C49.30859375 28.36328125 49.30859375 28.36328125 51.30859375 30.36328125 C51.56738281 32.39453125 51.56738281 32.39453125 51.57421875 34.86328125 C51.57808594 36.19359375 51.57808594 36.19359375 51.58203125 37.55078125 C51.57429687 38.47890625 51.5665625 39.40703125 51.55859375 40.36328125 C51.57019531 41.75546875 51.57019531 41.75546875 51.58203125 43.17578125 C51.57945312 44.06265625 51.576875 44.94953125 51.57421875 45.86328125 C51.57196289 46.67796875 51.56970703 47.49265625 51.56738281 48.33203125 C51.30859375 50.36328125 51.30859375 50.36328125 49.30859375 52.36328125 C46.51123047 52.59033203 46.51123047 52.59033203 42.98828125 52.55859375 C41.10302734 52.54892578 41.10302734 52.54892578 39.1796875 52.5390625 C37.20162109 52.51392578 37.20162109 52.51392578 35.18359375 52.48828125 C33.84375654 52.47825108 32.50391223 52.46912529 31.1640625 52.4609375 C27.87872802 52.437302 24.5937491 52.40435359 21.30859375 52.36328125 C21.37002085 60.04836521 21.4472808 67.73315501 21.54430866 75.41786957 C21.58888341 78.98688971 21.62816699 82.55579911 21.6550293 86.125 C21.68119226 89.57467987 21.72168385 93.02393053 21.77178001 96.4733429 C21.79638691 98.41844939 21.80645982 100.3637224 21.8162384 102.30895996 C21.86477693 113.23031765 21.86477693 113.23031765 27.30859375 122.30078125 C30.4921431 123.99204184 33.17645607 124.50572516 36.72265625 124.64453125 C37.56570313 124.68191406 38.40875 124.71929688 39.27734375 124.7578125 C41.05597731 124.82843471 42.83462331 124.89874451 44.61328125 124.96875 C45.45375 125.00613281 46.29421875 125.04351563 47.16015625 125.08203125 C47.93182129 125.11232422 48.70348633 125.14261719 49.49853516 125.17382812 C51.30859375 125.36328125 51.30859375 125.36328125 52.30859375 126.36328125 C52.64048989 129.47806355 52.63340103 132.60808099 52.68359375 135.73828125 C52.73966797 137.053125 52.73966797 137.053125 52.796875 138.39453125 C52.83015625 140.81296881 52.79147202 142.99268317 52.30859375 145.36328125 C46.84503325 150.40211267 38.61058454 149.57582919 31.62109375 149.61328125 C30.67814453 149.63390625 29.73519531 149.65453125 28.76367188 149.67578125 C18.11553606 149.7343277 8.62374585 147.07907864 0.62109375 139.8359375 C-8.14213913 130.52500257 -8.24875163 119.69168958 -8.08203125 107.63671875 C-8.07455633 106.03676058 -8.06886932 104.43679316 -8.06488037 102.83682251 C-8.04972221 98.65767439 -8.0105275 94.47909625 -7.96606445 90.3001709 C-7.92489771 86.023109 -7.906824 81.74595358 -7.88671875 77.46875 C-7.84402167 69.10000097 -7.77589232 60.73171233 -7.69140625 52.36328125 C-9.58826172 52.41548828 -9.58826172 52.41548828 -11.5234375 52.46875 C-13.18358048 52.49688802 -14.84373781 52.52418816 -16.50390625 52.55078125 C-17.33728516 52.57591797 -18.17066406 52.60105469 -19.02929688 52.62695312 C-20.23295898 52.64145508 -20.23295898 52.64145508 -21.4609375 52.65625 C-22.56852417 52.67981567 -22.56852417 52.67981567 -23.69848633 52.70385742 C-26.24871694 52.26804072 -27.11349402 51.37130385 -28.69140625 49.36328125 C-29.07958984 47.41796875 -29.07958984 47.41796875 -29.08984375 45.23828125 C-29.09371094 44.449375 -29.09757813 43.66046875 -29.1015625 42.84765625 C-29.08996094 42.0278125 -29.07835937 41.20796875 -29.06640625 40.36328125 C-29.07800781 39.5434375 -29.08960938 38.72359375 -29.1015625 37.87890625 C-29.09576172 36.69554687 -29.09576172 36.69554687 -29.08984375 35.48828125 C-29.08645996 34.76898437 -29.08307617 34.0496875 -29.07958984 33.30859375 C-28.57215712 30.76568563 -27.77307596 29.88367462 -25.69140625 28.36328125 C-23.7902832 28.02270508 -23.7902832 28.02270508 -21.6796875 28.0703125 C-20.92236328 28.07998047 -20.16503906 28.08964844 -19.38476562 28.09960938 C-18.59908203 28.12474609 -17.81339844 28.14988281 -17.00390625 28.17578125 C-15.80797852 28.19608398 -15.80797852 28.19608398 -14.58789062 28.21679688 C-12.62210658 28.25211036 -10.65667043 28.30591678 -8.69140625 28.36328125 C-8.7071167 27.62166748 -8.72282715 26.88005371 -8.73901367 26.1159668 C-8.80131339 22.76098229 -8.84038132 19.40611939 -8.87890625 16.05078125 C-8.90404297 14.88353516 -8.92917969 13.71628906 -8.95507812 12.51367188 C-8.96474609 11.39541016 -8.97441406 10.27714844 -8.984375 9.125 C-9.00008545 8.09334717 -9.0157959 7.06169434 -9.03198242 5.9987793 C-8.69140625 3.36328125 -8.69140625 3.36328125 -7.52880859 1.52587891 C-4.95180448 -0.10469425 -3.03678293 -0.0088844 0 0 Z " fill="#034D5A" transform="translate(802.69140625,672.63671875)"/>
<path d="M0 0 C1.58941406 0.0009668 1.58941406 0.0009668 3.2109375 0.00195312 C4.86996094 0.02612305 4.86996094 0.02612305 6.5625 0.05078125 C8.22152344 0.04594727 8.22152344 0.04594727 9.9140625 0.04101562 C18.16188076 0.09620176 18.16188076 0.09620176 21.5625 2.36328125 C21.93723011 5.10256958 21.93723011 5.10256958 21.9367218 8.66455078 C21.94069621 9.31821688 21.94467061 9.97188297 21.94876546 10.64535713 C21.95842555 12.84582087 21.94654869 15.04564758 21.93481445 17.24609375 C21.93724121 18.8194808 21.9409594 20.39286632 21.94587708 21.96624756 C21.9553057 26.2472005 21.94584421 30.52792559 21.93254495 34.80886078 C21.92125437 39.28159127 21.9253361 43.75431014 21.92729187 48.22705078 C21.92817561 55.73929583 21.91707786 63.25145076 21.89868164 70.76367188 C21.87751279 79.45808885 21.87400366 88.15237377 21.8802436 96.84681129 C21.88593157 105.1986529 21.8802983 113.55044784 21.86907005 121.90228271 C21.86441653 125.46206523 21.86355346 129.02181927 21.8656559 132.581604 C21.86753486 136.77093185 21.85946532 140.96012464 21.8435955 145.14942169 C21.83934062 146.69018241 21.83851015 148.2309568 21.84128571 149.77172089 C21.84449094 151.8686344 21.83546824 153.96514016 21.82319641 156.06201172 C21.82114354 157.23746552 21.81909067 158.41291931 21.81697559 159.62399292 C21.5625 162.36328125 21.5625 162.36328125 19.5625 164.36328125 C16.98046875 164.62207031 16.98046875 164.62207031 13.75 164.62890625 C12.59242188 164.63148438 11.43484375 164.6340625 10.2421875 164.63671875 C9.02789063 164.62898437 7.81359375 164.62125 6.5625 164.61328125 C5.34820313 164.62101563 4.13390625 164.62875 2.8828125 164.63671875 C1.14644531 164.63285156 1.14644531 164.63285156 -0.625 164.62890625 C-2.22408203 164.62552246 -2.22408203 164.62552246 -3.85546875 164.62207031 C-6.4375 164.36328125 -6.4375 164.36328125 -8.4375 162.36328125 C-8.69197559 159.6424036 -8.69197559 159.6424036 -8.69819641 156.10670471 C-8.70202196 155.45782773 -8.70584751 154.80895076 -8.70978898 154.14041084 C-8.72014528 151.95623748 -8.71612196 149.77232572 -8.7121582 147.58813477 C-8.71650324 146.02622228 -8.72168569 144.46431194 -8.72764587 142.90240479 C-8.74106976 138.65243343 -8.74161078 134.40255081 -8.73908257 130.15256238 C-8.73801512 126.60865939 -8.74289043 123.06477452 -8.747688 119.52087539 C-8.75879496 111.16225934 -8.75921395 102.80368823 -8.75317383 94.44506836 C-8.74713224 85.81312897 -8.75944699 77.18135251 -8.7807439 68.54944092 C-8.79833932 61.14643199 -8.80436451 53.74347502 -8.80110615 46.34044594 C-8.79928981 41.91541648 -8.80196425 37.49050322 -8.81582069 33.06549263 C-8.82836099 28.90485787 -8.82649122 24.74447772 -8.81340981 20.58384705 C-8.81103612 19.05478773 -8.81380691 17.52571071 -8.82203293 15.99667168 C-8.83243595 13.91309614 -8.82445301 11.83038515 -8.8117218 9.74684143 C-8.81188954 8.57968377 -8.81205729 7.41252611 -8.81223011 6.21000004 C-8.4375 3.36328125 -8.4375 3.36328125 -7.070117 1.48757839 C-4.69738303 -0.14639824 -2.85890036 -0.00877982 0 0 Z " fill="#024D5A" transform="translate(615.4375,655.63671875)"/>
<path d="M0 0 C1.05960937 -0.00386719 2.11921875 -0.00773438 3.2109375 -0.01171875 C4.86996094 0.00568359 4.86996094 0.00568359 6.5625 0.0234375 C8.22152344 0.00603516 8.22152344 0.00603516 9.9140625 -0.01171875 C10.97367187 -0.00785156 12.03328125 -0.00398437 13.125 0 C14.58099609 0.00507568 14.58099609 0.00507568 16.06640625 0.01025391 C18.5625 0.3984375 18.5625 0.3984375 20.195117 1.52372646 C22.19965133 4.27198546 21.93720743 6.40298012 21.9367218 9.78199768 C21.94069621 10.43243465 21.94467061 11.08287162 21.94876546 11.7530188 C21.9584043 13.93655982 21.9465615 16.11945548 21.93481445 18.30297852 C21.93724188 19.86666099 21.94096073 21.43034192 21.94587708 22.99401855 C21.95529566 27.24392227 21.94585301 31.49359609 21.93254495 35.74348187 C21.92124518 40.18550996 21.92533676 44.62752649 21.92729187 49.06956482 C21.92817522 56.52875535 21.91708511 63.98785507 21.89868164 71.44702148 C21.87750563 80.07954353 21.87400553 88.71193257 21.8802436 97.34447533 C21.88593137 105.63918797 21.88029904 113.93385363 21.86907005 122.22855949 C21.86441707 125.76322229 21.86355322 129.29785641 21.8656559 132.83252144 C21.86753478 136.99149423 21.85946588 141.15033099 21.8435955 145.30927277 C21.83934071 146.83874639 21.83851009 148.36823378 21.84128571 149.8977108 C21.84449101 151.97924519 21.83546815 154.06036883 21.82319641 156.14186096 C21.82114354 157.3086416 21.81909067 158.47542223 21.81697559 159.67755985 C21.5625 162.3984375 21.5625 162.3984375 19.5625 164.3984375 C16.98046875 164.65722656 16.98046875 164.65722656 13.75 164.6640625 C12.59242188 164.66664063 11.43484375 164.66921875 10.2421875 164.671875 C9.02789062 164.66414062 7.81359375 164.65640625 6.5625 164.6484375 C5.34820312 164.65617188 4.13390625 164.66390625 2.8828125 164.671875 C1.14644531 164.66800781 1.14644531 164.66800781 -0.625 164.6640625 C-2.22408203 164.66067871 -2.22408203 164.66067871 -3.85546875 164.65722656 C-6.4375 164.3984375 -6.4375 164.3984375 -8.4375 162.3984375 C-8.69197559 159.67755985 -8.69197559 159.67755985 -8.69819641 156.14186096 C-8.70202196 155.49298398 -8.70584751 154.84410701 -8.70978898 154.17556709 C-8.72014528 151.99139373 -8.71612196 149.80748197 -8.7121582 147.62329102 C-8.71650324 146.06137853 -8.72168569 144.49946819 -8.72764587 142.93756104 C-8.74106976 138.68758968 -8.74161078 134.43770706 -8.73908257 130.18771863 C-8.73801512 126.64381564 -8.74289043 123.09993077 -8.747688 119.55603164 C-8.75879496 111.19741559 -8.75921395 102.83884448 -8.75317383 94.48022461 C-8.74713224 85.84828522 -8.75944699 77.21650876 -8.7807439 68.58459717 C-8.79833932 61.18158824 -8.80436451 53.77863127 -8.80110615 46.37560219 C-8.79928981 41.95057273 -8.80196425 37.52565947 -8.81582069 33.10064888 C-8.82836099 28.94001412 -8.82649122 24.77963397 -8.81340981 20.6190033 C-8.81103612 19.08994398 -8.81380691 17.56086696 -8.82203293 16.03182793 C-8.83243595 13.94825239 -8.82445301 11.8655414 -8.8117218 9.78199768 C-8.81188954 8.61484002 -8.81205729 7.44768236 -8.81223011 6.24515629 C-8.4375 3.3984375 -8.4375 3.3984375 -7.070117 1.52372646 C-4.70103056 -0.10917753 -2.8561334 0.00995664 0 0 Z " fill="#024C59" transform="translate(430.4375,655.6015625)"/>
<path d="M0 0 C7.82712652 -0.1253941 13.2387999 2.68196914 19 8 C20.66772099 9.86236217 22.29179882 11.75806979 23.9140625 13.66015625 C26.33984771 16.38121494 28.90418153 18.94335871 31.5 21.5 C35.23064535 25.17974721 38.76498276 28.95370539 42.1640625 32.94140625 C45.91417982 37.14632503 49.98117205 41.0539476 54 45 C53.67 45.99 53.34 46.98 53 48 C53.87978516 48.14501953 53.87978516 48.14501953 54.77734375 48.29296875 C57.45903712 49.14602059 58.62647466 50.2898516 60.5625 52.3125 C61.14128906 52.90675781 61.72007812 53.50101562 62.31640625 54.11328125 C62.87199219 54.73589844 63.42757812 55.35851562 64 56 C64.51554443 56.57000732 65.03108887 57.14001465 65.56225586 57.72729492 C67.40363447 60.63804267 67.50164359 62.83024202 67.6875 66.25 C67.75324219 67.32765625 67.81898438 68.4053125 67.88671875 69.515625 C67.92410156 70.33546875 67.96148438 71.1553125 68 72 C61.48966062 72.0765439 54.97943882 72.12880571 48.46875 72.16479492 C46.25744286 72.17981037 44.04616515 72.20022891 41.83496094 72.22631836 C38.64250391 72.26302154 35.45044325 72.2797993 32.2578125 72.29296875 C31.28135773 72.30845261 30.30490295 72.32393646 29.29885864 72.33988953 C21.27218876 72.34182395 12.67066045 71.40158558 6.5625 65.6875 C5.63630859 64.85798828 5.63630859 64.85798828 4.69140625 64.01171875 C-0.77367734 57.51167706 -0.3982031 51.278709 -0.29296875 43.1640625 C-0.28872391 41.92957367 -0.28447906 40.69508484 -0.28010559 39.42318726 C-0.26334731 35.49023394 -0.22569883 31.55779779 -0.1875 27.625 C-0.1707574 24.95443458 -0.15876183 22.28387401 -0.14648438 19.61328125 C-0.11345298 13.07534514 -0.06328112 6.53770953 0 0 Z " fill="#FBB012" transform="translate(609,243)"/>
<path d="M0 0 C0.65819623 -0.00779995 1.31639245 -0.01559991 1.99453402 -0.02363622 C4.19285382 -0.04352846 6.38943694 -0.02780524 8.58776855 -0.01205444 C10.16659046 -0.0188319 11.74540445 -0.02773576 13.32420349 -0.03860474 C17.60736172 -0.0613898 21.88991747 -0.05256527 26.17308617 -0.03670931 C30.65642286 -0.02404611 35.13970814 -0.03579158 39.62304688 -0.04364014 C47.15190895 -0.05273549 54.68052575 -0.04075185 62.20935059 -0.01693726 C70.91245381 0.0102739 79.61497137 0.00145965 88.3180604 -0.02606928 C95.79168919 -0.04876266 103.26514173 -0.05195934 110.73879385 -0.03887594 C115.20190117 -0.03108265 119.66473326 -0.03003636 124.12782288 -0.04655838 C128.32398949 -0.06100733 132.51940141 -0.05097434 136.71548653 -0.0220871 C138.2549826 -0.01547845 139.79454224 -0.01737029 141.33401299 -0.02840042 C143.43699137 -0.0420783 145.53755611 -0.02491952 147.64038086 0 C149.40463032 0.00282769 149.40463032 0.00282769 151.20452118 0.00571251 C155.27455756 0.82765152 156.77354099 2.41907717 159.32019043 5.63491821 C159.94519043 9.13491821 159.94519043 9.13491821 159.32019043 12.63491821 C156.77354099 15.85075926 155.27455756 17.44218491 151.20452118 18.26412392 C150.02835487 18.26600904 148.85218857 18.26789417 147.64038086 18.26983643 C146.98218463 18.27763638 146.32398841 18.28543633 145.64584684 18.29347265 C143.44752704 18.31336489 141.25094392 18.29764167 139.0526123 18.28189087 C137.4737904 18.28866833 135.89497641 18.29757219 134.31617737 18.30844116 C130.03301914 18.33122622 125.75046339 18.3224017 121.46729469 18.30654573 C116.983958 18.29388253 112.50067272 18.30562801 108.01733398 18.31347656 C100.48847191 18.32257192 92.95985511 18.31058827 85.43103027 18.28677368 C76.72792705 18.25956253 68.02540949 18.26837678 59.32232046 18.29590571 C51.84869166 18.31859909 44.37523913 18.32179577 36.90158701 18.30871236 C32.43847968 18.30091907 27.9756476 18.29987279 23.51255798 18.31639481 C19.31639137 18.33084376 15.12097945 18.32081076 10.92489433 18.29192352 C9.38539826 18.28531488 7.84583862 18.28720671 6.30636787 18.29823685 C4.20338949 18.31191473 2.10282475 18.29475595 0 18.26983643 C-1.76424946 18.26700873 -1.76424946 18.26700873 -3.56414032 18.26412392 C-7.6341767 17.44218491 -9.13316013 15.85075926 -11.67980957 12.63491821 C-12.30480957 9.13491821 -12.30480957 9.13491821 -11.67980957 5.63491821 C-8.06358694 1.06844865 -5.77047295 0.00924876 0 0 Z " fill="#17A2C9" transform="translate(459.6798095703125,387.3650817871094)"/>
<path d="M0 0 C1.09915237 -0.00571014 2.19830475 -0.01142029 3.33076477 -0.01730347 C5.14022331 -0.01898026 5.14022331 -0.01898026 6.98623657 -0.02069092 C8.25636093 -0.02565582 9.52648529 -0.03062073 10.83509827 -0.03573608 C14.32068185 -0.04885141 17.80624617 -0.05530323 21.29185057 -0.05974674 C23.46970217 -0.06267859 25.64754853 -0.0667836 27.82539749 -0.07125092 C34.64002215 -0.08492296 41.45463479 -0.0945913 48.26927221 -0.09845281 C56.13477823 -0.10293436 64.00011055 -0.12048787 71.86556375 -0.1494534 C77.94633508 -0.17106915 84.02705754 -0.18115701 90.10786688 -0.18249393 C93.73931089 -0.18354195 97.37059154 -0.18944907 101.00199509 -0.20731354 C105.05283912 -0.22685409 109.10331939 -0.22250572 113.15420532 -0.21600342 C114.35646255 -0.2252182 115.55871979 -0.23443298 116.79740906 -0.243927 C117.90220108 -0.23835785 119.0069931 -0.2327887 120.14526367 -0.22705078 C121.1027973 -0.22851734 122.06033092 -0.2299839 123.04688072 -0.2314949 C126.88273234 0.30632531 129.67499753 1.83638269 132.07461548 4.89044189 C133.02797092 8.32252149 132.61616204 10.71866805 131.69961548 14.14044189 C129.48077265 16.88902022 127.63937907 18.00624579 124.13154602 18.50715637 C120.74904324 18.66383602 117.38847465 18.68053342 114.00234985 18.65802002 C112.7124263 18.6650293 111.42250275 18.67203857 110.0934906 18.67926025 C106.56241839 18.69746909 103.03181455 18.69043657 99.50073433 18.67774391 C95.8021635 18.66760342 92.10363225 18.67701249 88.40505981 18.68328857 C82.19441543 18.69056196 75.98396142 18.68098553 69.77334595 18.66192627 C62.59717155 18.64015794 55.42145175 18.64720954 48.24528837 18.66923189 C42.07951582 18.68739484 35.91387998 18.6899399 29.74808931 18.67947721 C26.06748283 18.67324713 22.38708989 18.67239309 18.70649719 18.68562317 C14.60301879 18.69934352 10.50032176 18.68031758 6.3968811 18.65802002 C5.17906448 18.66611694 3.96124786 18.67421387 2.70652771 18.68255615 C-5.5225831 18.59958834 -5.5225831 18.59958834 -9.53146362 16.23309326 C-11.65882696 13.71640086 -12.24718632 12.61922571 -12.61288452 9.32794189 C-12.22692159 5.39112002 -11.06641773 3.9064751 -8.30038452 1.14044189 C-5.25326928 0.12473682 -3.18927528 0.00991557 0 0 Z " fill="#1CA2C8" transform="translate(460.3003845214844,333.85955810546875)"/>
<path d="M0 0 C0.57018253 8.55273802 -1.4265354 17.34280618 -7 24 C-14.03531531 31.28657657 -20.76835894 33.24629251 -30.625 33.4375 C-31.35380371 33.45989746 -32.08260742 33.48229492 -32.83349609 33.50537109 C-37.99197178 33.48304003 -40.92503847 32.39978462 -45 29 C-48.09333444 25.84780719 -48.43194692 23.48972446 -48.4375 19.125 C-48.29903321 13.95767125 -47.66681317 10.86501928 -44 7 C-35.50889695 1.16090283 -23.85291004 1.59958632 -13.875 0.875 C-12.75351562 0.78863281 -11.63203125 0.70226562 -10.4765625 0.61328125 C-2.41629464 0 -2.41629464 0 0 0 Z " fill="#FBF3E3" transform="translate(367,767)"/>
<path d="M0 0 C6.5917416 6.94805196 8.40141271 12.88206356 10.3125 22.4375 C-7.8375 22.4375 -25.9875 22.4375 -44.6875 22.4375 C-43.67648365 13.33835283 -42.29197182 7.87719946 -35.72265625 1.54296875 C-25.06921294 -6.86118711 -11.56444739 -6.72351592 0 0 Z " fill="#FBF3E4" transform="translate(729.6875,726.5625)"/>
<path d="M0 0 C20.77498673 -0.11677142 41.5499194 -0.20495785 62.32516766 -0.25906086 C71.9713659 -0.28484891 81.61736031 -0.32001091 91.26342773 -0.37719727 C99.67038143 -0.42701384 108.07718751 -0.45928664 116.4842847 -0.47044247 C120.93637635 -0.47696422 125.38804569 -0.49230441 129.84000206 -0.52865028 C134.03023559 -0.56258236 138.21987277 -0.57305874 142.41023064 -0.56553841 C143.94815563 -0.56691422 145.4861005 -0.57686384 147.02390671 -0.59602737 C149.12483928 -0.62092464 151.22352359 -0.61492087 153.32450867 -0.60127258 C154.49979472 -0.60588155 155.67508078 -0.61049051 156.88598156 -0.61523914 C160.96255539 0.19017285 162.45307011 1.78168977 165 5 C165.625 8.5 165.625 8.5 165 12 C162.45307011 15.21831023 160.96255539 16.80982715 156.88598156 17.61523914 C155.71069551 17.61063018 154.53540945 17.60602121 153.32450867 17.60127258 C152.66686817 17.60554471 152.00922766 17.60981683 151.33165866 17.61421841 C149.13536306 17.62243268 146.94099162 17.59499412 144.74487305 17.56762695 C143.16780136 17.56621612 141.59072639 17.56700915 140.01365662 17.56983948 C135.73694138 17.57127369 131.46092775 17.54188356 127.18437552 17.50696969 C122.71343276 17.47570681 118.2424738 17.47277551 113.7714386 17.46684265 C105.30703385 17.45130398 96.84295212 17.41027527 88.37868959 17.3600952 C78.74155962 17.30420241 69.1044142 17.27671541 59.46716249 17.25161803 C39.64459473 17.1993594 19.82231772 17.11141668 0 17 C0 16.67 0 16.34 0 16 C61.38 15.505 61.38 15.505 124 15 C123.01 13.515 123.01 13.515 122 12 C122.375 9.3125 122.375 9.3125 123 7 C122.01 7 121.02 7 120 7 C119.505 4.525 119.505 4.525 119 2 C79.73 1.67 40.46 1.34 0 1 C0 0.67 0 0.34 0 0 Z " fill="#0E9AD5" transform="translate(454,388)"/>
<path d="M0 0 C2.04950964 2.63508382 1.9979723 4.1135512 1.9375 7.5 C1 11 1 11 -0.76501465 13.18640137 C-5.87870838 16.05324216 -10.93145864 15.55591337 -16.69726562 15.51757812 C-17.98718918 15.5245874 -19.27711273 15.53159668 -20.60612488 15.53881836 C-24.13719709 15.5570272 -27.66780093 15.54999467 -31.19888115 15.53730202 C-34.89745198 15.52716152 -38.59598322 15.5365706 -42.29455566 15.54284668 C-48.50520005 15.55012006 -54.71565406 15.54054363 -60.92626953 15.52148438 C-68.10244393 15.49971604 -75.27816372 15.50676764 -82.45432711 15.52879 C-88.62009966 15.54695294 -94.7857355 15.549498 -100.95152617 15.53903532 C-104.63213265 15.53280524 -108.31252559 15.53195119 -111.99311829 15.54518127 C-116.09659669 15.55890162 -120.19929372 15.53987569 -124.30273438 15.51757812 C-125.52055099 15.52567505 -126.73836761 15.53377197 -127.99308777 15.54211426 C-136.25647755 15.45880083 -136.25647755 15.45880083 -140.2935791 12.96765137 C-140.856698 12.31832642 -141.41981689 11.66900146 -142 11 C-141.67 10.01 -141.34 9.02 -141 8 C-140.69651642 8.65030685 -140.39303284 9.30061371 -140.08035278 9.97062683 C-137.24034144 12.74104292 -135.30178603 12.47628472 -131.44404602 12.50878906 C-130.0928492 12.48957397 -130.0928492 12.48957397 -128.71435547 12.4699707 C-127.76277054 12.4721611 -126.81118561 12.4743515 -125.83076477 12.47660828 C-122.67588866 12.47892488 -119.52193978 12.45262142 -116.3671875 12.42578125 C-114.17343441 12.42085731 -111.97967712 12.41755845 -109.78591919 12.41581726 C-105.18071131 12.40816671 -100.57581303 12.38758194 -95.97070312 12.35668945 C-90.08301947 12.31725372 -84.19553795 12.29910283 -78.30773735 12.28938007 C-72.68169361 12.27937034 -67.05569848 12.25950734 -61.4296875 12.23828125 C-60.36200008 12.2348855 -59.29431267 12.23148975 -58.19427109 12.2279911 C-55.15012714 12.21633057 -52.10610545 12.19779331 -49.06201172 12.17700195 C-48.17335922 12.17431305 -47.28470673 12.17162415 -46.36912537 12.16885376 C-40.84424866 12.12184972 -35.4825259 11.69246339 -30 11 C-29.67 10.01 -29.34 9.02 -29 8 C-29.99 7.67 -30.98 7.34 -32 7 C-31.38125 6.773125 -30.7625 6.54625 -30.125 6.3125 C-27.37739861 4.61545208 -27.06789821 2.97485929 -26 0 C-22.37126643 -1.81436679 -18.12716986 -1.4770072 -14.125 -1.6875 C-13.21363281 -1.74744141 -12.30226563 -1.80738281 -11.36328125 -1.86914062 C-10.48285156 -1.91619141 -9.60242188 -1.96324219 -8.6953125 -2.01171875 C-7.89109863 -2.05772217 -7.08688477 -2.10372559 -6.25830078 -2.15112305 C-3.69066998 -1.97929997 -2.17811508 -1.34534135 0 0 Z " fill="#149FCD" transform="translate(591,337)"/>
<path d="M0 0 C2.65575614 3.13862089 3.77207194 6.10266311 5 10 C4.03662909 10.00423194 3.07325817 10.00846388 2.0806942 10.01282406 C-21.35476368 10.11599452 -44.79019062 10.22474005 -68.22559547 10.33933926 C-79.55875243 10.39462921 -90.89191254 10.44810428 -102.22509766 10.49731445 C-112.10250893 10.54020806 -121.97989742 10.58649913 -131.85727346 10.63687855 C-137.08777036 10.66343775 -142.31826286 10.68828978 -147.54878616 10.70907402 C-152.47184559 10.72869017 -157.39486183 10.75284878 -162.31788254 10.78049088 C-164.12464359 10.78983497 -165.93141411 10.79751967 -167.7381897 10.80341911 C-170.20592895 10.81172531 -172.67356463 10.82601439 -175.14126587 10.84178162 C-175.8552871 10.84275972 -176.56930833 10.84373783 -177.30496657 10.84474558 C-181.30216436 10.87756145 -185.07691063 11.23360638 -189 12 C-185.22202719 8.22202719 -180.62460158 7.77365435 -175.43583214 7.74183738 C-174.74126565 7.74766307 -174.04669916 7.75348875 -173.33108521 7.75949097 C-172.20246026 7.75692769 -172.20246026 7.75692769 -171.05103481 7.75431263 C-168.54059818 7.7510296 -166.03043137 7.76200174 -163.52001953 7.77294922 C-161.71620185 7.77351359 -159.9123837 7.77319627 -158.10856628 7.77206421 C-153.21854132 7.77149071 -148.3286146 7.78324469 -143.43861246 7.79721212 C-138.32568771 7.80971983 -133.21276068 7.81089002 -128.099823 7.81326294 C-118.42081725 7.81947758 -108.74185671 7.83588822 -99.06287086 7.85596192 C-88.0423915 7.87832138 -77.02190998 7.88931447 -66.00141358 7.89935279 C-43.33425066 7.92025444 -20.66712787 7.95543014 2 8 C1.67 7.236875 1.34 6.47375 1 5.6875 C0 3 0 3 0 0 Z " fill="#0396D5" transform="translate(592,232)"/>
<path d="M0 0 C-0.66 0.66 -1.32 1.32 -2 2 C-10.58 2 -19.16 2 -28 2 C-28 22.13 -28 42.26 -28 63 C-30.31118163 59.53322756 -30.24417896 58.23668119 -30.22705078 54.15161133 C-30.22689972 52.9505928 -30.22674866 51.74957428 -30.22659302 50.51216125 C-30.21627045 49.21521835 -30.20594788 47.91827545 -30.1953125 46.58203125 C-30.19158155 45.24110627 -30.18873497 43.90017856 -30.18673706 42.55924988 C-30.17910699 39.03285167 -30.15946403 35.50661866 -30.1373291 31.98028564 C-30.1168571 28.38076004 -30.10773245 24.78120769 -30.09765625 21.18164062 C-30.07621745 14.12102624 -30.04208913 7.06052391 -30 0 C-26.04924621 -0.16755938 -22.09827679 -0.3281242 -18.14697266 -0.48217773 C-16.14079929 -0.56187238 -14.13484924 -0.64712518 -12.12890625 -0.73242188 C-10.87207031 -0.78076172 -9.61523438 -0.82910156 -8.3203125 -0.87890625 C-6.57645264 -0.94960327 -6.57645264 -0.94960327 -4.79736328 -1.02172852 C-2 -1 -2 -1 0 0 Z " fill="#FCFCF4" transform="translate(854,725)"/>
<path d="M0 0 C6.27 0 12.54 0 19 0 C19 24.09 19 48.18 19 73 C16.58380369 69.37570554 16.75701066 67.72861638 16.77294922 63.41723633 C16.77265717 62.75355545 16.77236511 62.08987457 16.77206421 61.40608215 C16.77345643 59.21459839 16.78901221 57.02345555 16.8046875 54.83203125 C16.80841802 53.31174404 16.81126481 51.79145442 16.81326294 50.27116394 C16.82089634 46.27130486 16.84054226 42.27159121 16.8626709 38.27178955 C16.88313566 34.18967659 16.892266 30.10754011 16.90234375 26.02539062 C16.92378848 18.01686037 16.95792083 10.00844828 17 2 C15.94039062 2.02320313 14.88078125 2.04640625 13.7890625 2.0703125 C12.4010487 2.08906944 11.0130273 2.10726972 9.625 2.125 C8.57699219 2.15013672 8.57699219 2.15013672 7.5078125 2.17578125 C5.67102514 2.19344267 3.83398037 2.10303261 2 2 C1.34 1.34 0.68 0.68 0 0 Z " fill="#D8E1DD" transform="translate(776,725)"/>
<path d="M0 0 C1.30195312 0.00322266 2.60390625 0.00644531 3.9453125 0.00976562 C5.32552149 0.01812159 6.70572982 0.02658654 8.0859375 0.03515625 C9.47395676 0.04017124 10.86197772 0.04473415 12.25 0.04882812 C15.65368882 0.06064649 19.05729189 0.07712191 22.4609375 0.09765625 C23.15991211 1.86816406 23.15991211 1.86816406 23.4609375 4.09765625 C22.19750977 5.92871094 22.19750977 5.92871094 20.27734375 7.76953125 C19.59736328 8.43339844 18.91738281 9.09726562 18.21679688 9.78125 C17.49298828 10.46316406 16.76917969 11.14507813 16.0234375 11.84765625 C14.94352539 12.89373047 14.94352539 12.89373047 13.84179688 13.9609375 C12.05882289 15.68487261 10.26525924 17.39612234 8.4609375 19.09765625 C8.4609375 16.09765625 8.4609375 16.09765625 11.05078125 13.25 C12.15929552 12.17076222 13.27554127 11.09942226 14.3984375 10.03515625 C18.4130307 6.44216282 18.4130307 6.44216282 21.4609375 2.09765625 C17.47628751 2.0673416 13.49463589 2.08343377 9.51025391 2.14038086 C7.49781007 2.15980044 5.48512404 2.14370726 3.47265625 2.12695312 C-5.22746878 2.27002324 -5.22746878 2.27002324 -12.4765625 6.65625 C-13.53234951 7.77129894 -14.56820379 8.90792783 -15.5390625 10.09765625 C-15.5390625 7.09765625 -15.5390625 7.09765625 -14.078125 5.52734375 C-13.44648437 5.01429688 -12.81484375 4.50125 -12.1640625 3.97265625 C-11.53757812 3.45445312 -10.91109375 2.93625 -10.265625 2.40234375 C-6.79399335 -0.22101591 -4.31258974 -0.01875039 0 0 Z " fill="#033140" transform="translate(562.5390625,701.90234375)"/>
<path d="M0 0 C27.06 0 54.12 0 82 0 C82 0.33 82 0.66 82 1 C55.6 1.33 29.2 1.66 2 2 C2.99 6.62 3.98 11.24 5 16 C4.34 15.67 3.68 15.34 3 15 C2.1484375 12.12890625 2.1484375 12.12890625 1.375 8.5625 C1.11460937 7.38816406 0.85421875 6.21382812 0.5859375 5.00390625 C0 2 0 2 0 0 Z " fill="#FCFEFC" transform="translate(684,769)"/>
<path d="M0 0 C23.02707373 -2.08365632 23.02707373 -2.08365632 29.19140625 2.53125 C32.22437884 5.38612672 34.59713795 8.60875777 37 12 C38.30524869 13.3608385 39.62799949 14.70648922 41 16 C36.36403322 15.15233735 34.00733571 12.30762457 30.875 9 C25.37639896 3.16922638 25.37639896 3.16922638 17.7734375 1.68359375 C16.7421875 1.64169922 15.7109375 1.59980469 14.6484375 1.55664062 C13.56820313 1.51732422 12.48796875 1.47800781 11.375 1.4375 C9.74304688 1.37272461 9.74304688 1.37272461 8.078125 1.30664062 C5.3855483 1.2003547 2.69287747 1.09831943 0 1 C0 0.67 0 0.34 0 0 Z " fill="#FDF9F6" transform="translate(460,496)"/>
<path d="M0 0 C8.7151129 3.27006854 20.74390021 10.48780042 25 19 C22.07898986 17.80995883 20.70053772 16.67807805 18.5 14.3125 C17.2625 13.1678125 17.2625 13.1678125 16 12 C13.72476911 12.04497842 13.72476911 12.04497842 12 13 C11.67 12.34 11.34 11.68 11 11 C10.01 11.495 10.01 11.495 9 12 C9.33 10.68 9.66 9.36 10 8 C9.278125 7.50628906 8.55625 7.01257813 7.8125 6.50390625 C6.884375 5.86324219 5.95625 5.22257812 5 4.5625 C4.071875 3.92441406 3.14375 3.28632813 2.1875 2.62890625 C1.465625 2.09136719 0.74375 1.55382812 0 1 C0 0.67 0 0.34 0 0 Z " fill="#FB8B15" transform="translate(719,306)"/>
<path d="M0 0 C0.56960937 8.5441405 -1.39646129 17.37763607 -7 24 C-8.31098089 24.70961351 -9.6421302 25.38484813 -11 26 C-10.38511719 25.12988281 -10.38511719 25.12988281 -9.7578125 24.2421875 C-4.67574291 16.8744024 -2.74795897 10.85740881 -2 2 C-4.31 2 -6.62 2 -9 2 C-9 1.67 -9 1.34 -9 1 C-2.25 0 -2.25 0 0 0 Z " fill="#F1F7F2" transform="translate(367,767)"/>
<path d="M0 0 C5.28 0 10.56 0 16 0 C15.67 0.66 15.34 1.32 15 2 C11.7 2 8.4 2 5 2 C4.78023636 4.1009163 4.78023636 4.1009163 6.390625 5.5859375 C7.00421875 6.17632812 7.6178125 6.76671875 8.25 7.375 C8.88550781 7.99246094 9.52101563 8.60992187 10.17578125 9.24609375 C10.77777344 9.82488281 11.37976563 10.40367187 12 11 C13.33333333 12.33333333 14.66666667 13.66666667 16 15 C11.36026982 13.5750006 8.48920456 10.91190831 5.1875 7.5 C4.68541016 7.00113281 4.18332031 6.50226563 3.66601562 5.98828125 C0 2.26740009 0 2.26740009 0 0 Z " fill="#FC8D14" transform="translate(486,496)"/>
<path d="M0 0 C4.59259921 3.60847081 6.35727787 8.55848294 8 14 C8.25 17.625 8.25 17.625 8 20 C6 17 6 17 6 13 C5.34 13 4.68 13 4 13 C4 11.35 4 9.7 4 8 C3.34 8 2.68 8 2 8 C1.33333333 5.33333333 0.66666667 2.66666667 0 0 Z " fill="#0D3947" transform="translate(388,720)"/>
<path d="M0 0 C0.66 0.33 1.32 0.66 2 1 C1.74658809 4.42106076 0.69217816 5.30782184 -1.8125 7.8125 C-5 10 -5 10 -7.375 9.8125 C-7.91125 9.544375 -8.4475 9.27625 -9 9 C-7.6078125 7.88625 -7.6078125 7.88625 -6.1875 6.75 C-3.72873042 4.70974439 -1.78352451 2.67528677 0 0 Z " fill="#063E4C" transform="translate(738,787)"/>
<path d="M0 0 C0.33 0.66 0.66 1.32 1 2 C2.65 1.34 4.3 0.68 6 0 C1.64592545 5.10477706 -3.84798598 8.36483779 -10 11 C-10.66 10.67 -11.32 10.34 -12 10 C-11.30132813 9.61328125 -10.60265625 9.2265625 -9.8828125 8.828125 C-8.97273437 8.30734375 -8.06265625 7.7865625 -7.125 7.25 C-6.22007812 6.73953125 -5.31515625 6.2290625 -4.3828125 5.703125 C-1.92029011 3.94302703 -1.05532477 2.78993906 0 0 Z " fill="#FB8D11" transform="translate(724,515)"/>
<path d="M0 0 C2.64 0 5.28 0 8 0 C5 2 5 2 2 2 C2.99 6.62 3.98 11.24 5 16 C4.34 15.67 3.68 15.34 3 15 C2.1484375 12.12890625 2.1484375 12.12890625 1.375 8.5625 C1.11460937 7.38816406 0.85421875 6.21382812 0.5859375 5.00390625 C0 2 0 2 0 0 Z " fill="#F6FAF4" transform="translate(684,769)"/>
<path d="M0 0 C1.65 0 3.3 0 5 0 C4.6875 3.375 4.6875 3.375 4 7 C3.01 7.66 2.02 8.32 1 9 C-1.125 3.375 -1.125 3.375 0 0 Z " fill="#139CD3" transform="translate(614,395)"/>
<path d="M0 0 C0.99 0.33 1.98 0.66 3 1 C-4.29840547 8.48291572 -4.29840547 8.48291572 -8 11 C-8.66 10.67 -9.32 10.34 -10 10 C-6.7 6.7 -3.4 3.4 0 0 Z " fill="#EDF3E7" transform="translate(374,468)"/>
<path d="M0 0 C-3.68734758 2.45823172 -6.69699971 3.01242616 -11 4 C-9.54643338 0.24495289 -9.54643338 0.24495289 -7.1875 -0.8125 C-4.61235122 -1.03322704 -2.49777315 -0.62444329 0 0 Z " fill="#0A424E" transform="translate(354,817)"/>
<path d="M0 0 C0 3.63053243 -1.2278255 4.95750337 -3.5546875 7.63671875 C-5.49136818 9.46347972 -7.46012234 10.27432067 -10 11 C-6.79239749 7.19364503 -3.59253891 3.45436433 0 0 Z " fill="#E4EBE5" transform="translate(553,738)"/>
<path d="M0 0 C0.33 0 0.66 0 1 0 C1.33 2.64 1.66 5.28 2 8 C1.01 8.33 0.02 8.66 -1 9 C-1 9.66 -1 10.32 -1 11 C-1.99 11.33 -2.98 11.66 -4 12 C-3.71125 11.505 -3.4225 11.01 -3.125 10.5 C-1.58711584 7.08247965 -0.85152195 3.6493798 0 0 Z M2 4 C2.99 4.495 2.99 4.495 4 5 C3.34 5.66 2.68 6.32 2 7 C2 6.01 2 5.02 2 4 Z " fill="#FADE47" transform="translate(593,340)"/>
<path d="M0 0 C0.99 0.33 1.98 0.66 3 1 C3.66 0.67 4.32 0.34 5 0 C3.60667426 3.36720387 2.0210714 4.9859524 -1 7 C-1.625 5.1875 -1.625 5.1875 -2 3 C-1.34 2.01 -0.68 1.02 0 0 Z " fill="#FC9115" transform="translate(746,495)"/>
<path d="M0 0 C3.59905908 0.55550695 4.99909799 1.74887248 7.25 4.5625 C8.03117188 5.52349609 8.03117188 5.52349609 8.828125 6.50390625 C9.21484375 6.99761719 9.6015625 7.49132812 10 8 C6.44687712 6.26978364 3.20269206 4.32923059 0 2 C0 1.34 0 0.68 0 0 Z " fill="#219DC7" transform="translate(562,192)"/>
<path d="M0 0 C-6.5625 3.48214286 -6.5625 3.48214286 -10.9375 2.1875 C-11.948125 1.795625 -12.95875 1.40375 -14 1 C-14 0.67 -14 0.34 -14 0 C-12.41773035 -0.19627391 -10.83410729 -0.38165538 -9.25 -0.5625 C-8.36828125 -0.66691406 -7.4865625 -0.77132813 -6.578125 -0.87890625 C-4.11567549 -0.99456676 -2.33461936 -0.73638695 0 0 Z " fill="#FC992C" transform="translate(680,292)"/>
<path d="M0 0 C1.62580966 0.11398665 3.25067157 0.24155659 4.875 0.375 C5.77992188 0.44460938 6.68484375 0.51421875 7.6171875 0.5859375 C10 1 10 1 12 3 C9.36 3 6.72 3 4 3 C4 2.34 4 1.68 4 1 C2.68 0.67 1.36 0.34 0 0 Z " fill="#043441" transform="translate(721,701)"/>
<path d="M0 0 C1.9375 0.5625 1.9375 0.5625 4 2 C4.75 5.625 4.75 5.625 5 9 C4.54625 8.34 4.0925 7.68 3.625 7 C3.08875 6.34 2.5525 5.68 2 5 C1.34 5 0.68 5 0 5 C0 3.35 0 1.7 0 0 Z " fill="#1299D6" transform="translate(587,335)"/>
<path d="M0 0 C0.66 1.32 1.32 2.64 2 4 C0.68 4.33 -0.64 4.66 -2 5 C-2 4.34 -2 3.68 -2 3 C-3.32 2.67 -4.64 2.34 -6 2 C-4.02 1.34 -2.04 0.68 0 0 Z " fill="#E6EADF" transform="translate(351,818)"/>
<path d="M0 0 C0.99 0.33 1.98 0.66 3 1 C3.66666667 2.66666667 4.33333333 4.33333333 5 6 C5.99 6.33 6.98 6.66 8 7 C7.34 7.66 6.68 8.32 6 9 C4.99712471 7.68969568 3.99777175 6.37669473 3 5.0625 C2.443125 4.33160156 1.88625 3.60070312 1.3125 2.84765625 C0 1 0 1 0 0 Z " fill="#E4ECE6" transform="translate(688,785)"/>
<path d="M0 0 C2.88437779 1.29299694 4.87219421 2.65941363 7 5 C5.35 5.33 3.7 5.66 2 6 C0.99983813 3.99967627 0.50603992 2.16874252 0 0 Z " fill="#1098C5" transform="translate(557,187)"/>
<path d="M0 0 C-0.33 0.99 -0.66 1.98 -1 3 C-4.3 3 -7.6 3 -11 3 C-11 2.67 -11 2.34 -11 2 C-9.54494642 1.47007308 -8.08581873 0.9513211 -6.625 0.4375 C-5.81289063 0.14746094 -5.00078125 -0.14257812 -4.1640625 -0.44140625 C-2 -1 -2 -1 0 0 Z " fill="#E5EBE6" transform="translate(856,819)"/>
<path d="M0 0 C0.66 0.33 1.32 0.66 2 1 C0.79618552 3.49361571 -0.45428722 5.68143083 -2 8 C-2.99 7.34 -3.98 6.68 -5 6 C-3.35 4.02 -1.7 2.04 0 0 Z " fill="#053745" transform="translate(303,713)"/>
<path d="M0 0 C0 0.66 0 1.32 0 2 C-0.99 2.33 -1.98 2.66 -3 3 C-3 2.34 -3 1.68 -3 1 C-4.65 1.33 -6.3 1.66 -8 2 C-6.14210462 -1.71579076 -3.44525918 -1.06921837 0 0 Z " fill="#0F97C6" transform="translate(336,169)"/>
</svg>
